<svg xmlns="http://www.w3.org/2000/svg" style="display:none"><symbol id="logo--header" viewBox="0 0 720 222"><path fill-rule="evenodd" clip-rule="evenodd" d="M644.323 198.794c16.531 0 23.757-6.52 23.757-21.122v-29.94c0-14.97-6.956-21.123-23.757-21.123-16.802 0-23.215 6.181-23.215 21.122v29.941c0 14.575 6.683 21.122 23.215 21.122zm0-11.203c-9.034 0-10.75-3.858-10.75-10.562v-28.655c0-6.427 1.716-10.561 10.75-10.561 9.664 0 11.291 4.16 11.291 10.561v28.655c0 6.677-2.258 10.562-11.291 10.562zM617.185 201.63l-24.75-35.358 22.8-35.541h-14.542l-18.375 29.94h-3.343v-29.94H566.51v70.898h12.375v-28.377h3.523l19.602 28.377h15.175M504.478 201.63h39.565v10.102h11.743v-21.398h-6.234V130.73h-12.465v59.603h-20.234V130.73h-12.375v70.898M421.173 130.731h-12.465l-19.332 70.898h12.919l7.044-27 5.42-24.246c1.807 8.082 3.442 16.354 5.42 24.246 2.255 8.993 4.517 18 7.136 27h12.917l-19.06-70.898M340.375 130.731v70.898h41.28v-11.295H352.84v-18.919h23.487V160.12H352.84v-18.092h27.551V130.73h-40.016M329.28 130.731h-52.827v11.296h20.27v59.602H309.1v-59.602h20.18V130.73M473.347 20.524v70.898h41.282V80.127h-28.815v-18.92h23.485V49.913h-23.485V31.82h27.55V20.524h-40.017M446.012 20.524h-12.467l-19.33 70.898h12.917l7.046-27 5.42-24.244c1.807 8.082 3.44 16.351 5.42 24.244 2.256 8.995 4.516 18.002 7.136 27h12.917l-19.06-70.898M388.52 20.524h-12.215l-19.32 70.898h12.826l3.05-12.489h18.832l3.049 12.49h12.827l-19.049-70.9zM375.62 67.638l6.657-27.277 6.66 27.277h-13.317zM348.312 91.422V20.524h-12.645v59.603H318.57V20.524h-12.284v59.603h-17.277V20.524h-12.556v70.898h71.86" fill="#fff"/><path fill-rule="evenodd" clip-rule="evenodd" d="M0 222h218.356V0H0v222z" fill="#E00"/><path fill-rule="evenodd" clip-rule="evenodd" d="M168.484 101.652h-18.39v50.947h-31.72V69.403h50.11V50.705H49.874v18.698h50.11v83.196h-31.72v-50.947h-18.39v69.644h118.61v-69.644M450.451 130.731v70.898h41.28v-11.295h-28.815v-18.919h23.485V160.12h-23.485v-18.092h27.551V130.73h-40.016M678.72 130.731v70.898H720v-11.295h-28.815v-18.919h23.487V160.12h-23.487v-18.092h27.551V130.73H678.72" fill="#fff"/></symbol></svg>