<svg width="421" height="128" viewBox="0 0 421 128" fill="none" xmlns="http://www.w3.org/2000/svg">
<path fill-rule="evenodd" clip-rule="evenodd" d="M13.571 41.506C23.235 41.506 27.459 37.757 27.459 29.361V12.145C27.459 3.538 23.393 0 13.571 0C3.74901 0 0 3.554 0 12.145V29.361C0 37.741 3.90701 41.506 13.571 41.506ZM13.571 35.064C8.29001 35.064 7.28702 32.846 7.28702 28.991V12.515C7.28702 8.819 8.29001 6.442 13.571 6.442C19.221 6.442 20.172 8.834 20.172 12.515V28.991C20.172 32.83 18.852 35.064 13.571 35.064Z" transform="translate(363.092 74.799)" fill="white"/>
<path fill-rule="evenodd" clip-rule="evenodd" d="M29.624 40.766L15.155 20.436L28.484 0H19.983L9.241 17.215H7.28702V0H0V40.766H7.23401V24.449H9.29401L20.753 40.766H29.624Z" transform="translate(331.175 75.169)" fill="white"/>
<path fill-rule="evenodd" clip-rule="evenodd" d="M0 40.766H23.129V46.575H29.994V34.271H26.35V0H19.063V34.271H7.23401V0H0V40.766Z" transform="translate(294.911 75.169)" fill="white"/>
<path fill-rule="evenodd" clip-rule="evenodd" d="M18.588 0H11.301L0 40.766H7.552L11.67 25.241L14.839 11.3C15.895 15.947 16.851 20.703 18.007 25.241C19.325 30.412 20.648 35.591 22.179 40.766H29.73L18.588 0Z" transform="translate(227.625 75.169)" fill="white"/>
<path fill-rule="evenodd" clip-rule="evenodd" d="M0 0V40.766H24.132V34.271H7.28699V23.393H21.017V16.898H7.28699V6.495H23.393V0H0Z" transform="translate(198.98 75.169)" fill="white"/>
<path fill-rule="evenodd" clip-rule="evenodd" d="M30.882 0H0V6.495H11.85V40.766H19.085V6.495H30.882V0Z" transform="translate(161.611 75.169)" fill="white"/>
<path fill-rule="evenodd" clip-rule="evenodd" d="M0 0V40.766H24.133V34.271H7.28799V23.393H21.017V16.898H7.28799V6.495H23.393V0H0Z" transform="translate(276.713 11.801)" fill="white"/>
<path fill-rule="evenodd" clip-rule="evenodd" d="M18.588 0H11.3L0 40.766H7.55099L11.67 25.241L14.839 11.301C15.895 15.948 16.85 20.703 18.007 25.241C19.326 30.413 20.647 35.592 22.179 40.766H29.73L18.588 0Z" transform="translate(242.145 11.801)" fill="white"/>
<path fill-rule="evenodd" clip-rule="evenodd" d="M18.435 0H11.294L0 40.766H7.498L9.28099 33.585H20.29L22.072 40.766H29.571L18.435 0ZM10.893 27.09L14.785 11.406L18.678 27.09H10.893Z" transform="translate(208.689 11.801)" fill="white"/>
<path fill-rule="evenodd" clip-rule="evenodd" d="M42.008 40.766V0H34.616V34.271H24.621V0C22.192 0 19.816 0 17.44 0V34.271H7.34V0H0V40.766C14.363 40.766 27.645 40.766 42.008 40.766Z" transform="translate(161.611 11.801)" fill="white"/>
<path fill-rule="evenodd" clip-rule="evenodd" d="M0 127.648H127.648V0H0V127.648Z" fill="#EE0000"/>
<path fill-rule="evenodd" clip-rule="evenodd" d="M69.338 29.294H58.588V58.588H40.045V10.751H69.338V0H0V10.751H29.294V58.588H10.751V29.294H0V69.339H69.338V29.294Z" transform="translate(29.155 29.155)" fill="white"/>
<path fill-rule="evenodd" clip-rule="evenodd" d="M0 0V40.766H24.132V34.271H7.28699V23.393H21.016V16.898H7.28699V6.495H23.393V0H0Z" transform="translate(263.328 75.169)" fill="white"/>
<path fill-rule="evenodd" clip-rule="evenodd" d="M0 0V40.766H24.132V34.271H7.28699V23.393H21.017V16.898H7.28699V6.495H23.393V0H0Z" transform="translate(396.771 75.169)" fill="white"/>
</svg>
