<svg width="720" height="222" viewBox="0 0 720 222" fill="none" xmlns="http://www.w3.org/2000/svg">
<path fill-rule="evenodd" clip-rule="evenodd" d="M7.73822 24.0618C13.2487 24.0618 15.6572 21.8885 15.6572 17.0211V7.04069C15.6572 2.05105 13.3387 0 7.73822 0C2.13769 0 0 2.06032 0 7.04069V17.0211C0 21.8792 2.22778 24.0618 7.73822 24.0618ZM7.73818 20.3273C4.72694 20.3273 4.15503 19.0414 4.15503 16.8066V7.25516C4.15503 5.11252 4.72694 3.73453 7.73818 3.73453C10.9598 3.73453 11.5021 5.12122 11.5021 7.25516V16.8066C11.5021 19.0322 10.7494 20.3273 7.73818 20.3273V20.3273Z" transform="translate(621.108 126.609) scale(3)" fill="white"/>
<path fill-rule="evenodd" clip-rule="evenodd" d="M16.8917 23.6328L8.64142 11.8471L16.2416 0H11.3944L5.26924 9.97987H4.15507V0H0V23.6328H4.12485V14.1736H5.29946L11.8334 23.6328H16.8917" transform="translate(566.51 130.731) scale(3)" fill="white"/>
<path fill-rule="evenodd" clip-rule="evenodd" d="M0 23.6328H13.1882V27.0004H17.1027V19.8676H15.0248V0H10.8698V19.8676H4.12484V0H0V23.6328" transform="translate(504.478 130.731) scale(3)" fill="white"/>
<path fill-rule="evenodd" clip-rule="evenodd" d="M10.5989 0H6.44386L0 23.6328H4.30617L6.65426 14.6327L8.46123 6.55083C9.06337 9.24478 9.60848 12.0019 10.2676 14.6327C11.0192 17.6304 11.7735 20.6328 12.6465 23.6328H16.9521L10.5989 0" transform="translate(389.376 130.731) scale(3)" fill="white"/>
<path fill-rule="evenodd" clip-rule="evenodd" d="M0 0V23.6328H13.7601V19.8676H4.15507V13.5614H11.9839V9.7961H4.15507V3.76528H13.3387V0H0" transform="translate(340.375 130.731) scale(3)" fill="white"/>
<path fill-rule="evenodd" clip-rule="evenodd" d="M17.609 0H0V3.76528H6.7569V23.6328H10.8823V3.76528H17.609V0" transform="translate(276.453 130.731) scale(3)" fill="white"/>
<path fill-rule="evenodd" clip-rule="evenodd" d="M0 0V23.6328H13.7607V19.8676H4.15564V13.5614H11.9839V9.7961H4.15564V3.76528H13.3387V0H0" transform="translate(473.347 20.5237) scale(3)" fill="white"/>
<path fill-rule="evenodd" clip-rule="evenodd" d="M10.5989 0H6.44329L0 23.6328H4.3056L6.65426 14.6327L8.46123 6.55141C9.06337 9.24536 9.60791 12.0019 10.2676 14.6327C11.0197 17.631 11.773 20.6334 12.6465 23.6328H16.9521L10.5989 0" transform="translate(414.215 20.5237) scale(3)" fill="white"/>
<path fill-rule="evenodd" clip-rule="evenodd" d="M10.5117 0H6.43987L0 23.6328H4.27538L5.29205 19.4699H11.5694L12.5855 23.6328H16.8615L10.5117 0ZM6.21118 15.7046L8.43041 6.6123L10.6502 15.7046H6.21118V15.7046Z" transform="translate(356.985 20.5237) scale(3)" fill="white"/>
<path fill-rule="evenodd" clip-rule="evenodd" d="M23.9531 23.6328V0H19.7381V19.8676H14.039V0C12.6539 0 11.2991 0 9.94433 0V19.8676H4.18529V0H0V23.6328C8.18982 23.6328 15.7632 23.6328 23.9531 23.6328" transform="translate(276.453 20.5237) scale(3)" fill="white"/>
<path fill-rule="evenodd" clip-rule="evenodd" d="M0 74H72.7852V0H0V74Z" transform="scale(3)" fill="#EE0000"/>
<path fill-rule="evenodd" clip-rule="evenodd" d="M39.5367 16.9823H33.407V33.9646H22.8338V6.23256H39.5367V0H0V6.23256H16.7035V33.9646H6.13025V16.9823H0V40.1971H39.5367V16.9823" transform="translate(49.8735 50.705) scale(3)" fill="white"/>
<path fill-rule="evenodd" clip-rule="evenodd" d="M0 0V23.6328H13.7601V19.8676H4.15507V13.5614H11.9834V9.7961H4.15507V3.76528H13.3387V0H0" transform="translate(450.451 130.731) scale(3)" fill="white"/>
<path fill-rule="evenodd" clip-rule="evenodd" d="M0 0V23.6328H13.7601V19.8676H4.15507V13.5614H11.9839V9.7961H4.15507V3.76528H13.3387V0H0" transform="translate(678.72 130.731) scale(3)" fill="white"/>
</svg>
