<svg width="80" height="25" viewBox="0 0 80 25" fill="none" xmlns="http://www.w3.org/2000/svg">
<path fill-rule="evenodd" clip-rule="evenodd" d="M2.57941 8.129C4.41622 8.129 5.21907 7.39475 5.21907 5.75038V2.37861C5.21907 0.692922 4.44625 0 2.57941 0C0.712566 0 0 0.696056 0 2.37861V5.75038C0 7.39162 0.742597 8.129 2.57941 8.129ZM2.57941 6.86732C1.57566 6.86732 1.38503 6.43293 1.38503 5.67792V2.45108C1.38503 1.72721 1.57566 1.26167 2.57941 1.26167C3.65329 1.26167 3.83404 1.73015 3.83404 2.45108V5.67792C3.83404 6.42979 3.58316 6.86732 2.57941 6.86732Z" transform="translate(69.012 14.6494)" fill="white"/>
<path fill-rule="evenodd" clip-rule="evenodd" d="M5.63056 7.98407L2.88047 4.00241L5.41389 0H3.79812L1.75641 3.37158H1.38503V0H0V7.98407H1.37495V4.78836H1.76649L3.94447 7.98407H5.63056Z" transform="translate(62.9456 14.7217)" fill="white"/>
<path fill-rule="evenodd" clip-rule="evenodd" d="M0 7.98406H4.39607V9.12176H5.70089V6.71201H5.00828V0H3.62326V6.71201H1.37495V0H0V7.98406Z" transform="translate(56.053 14.7217)" fill="white"/>
<path fill-rule="evenodd" clip-rule="evenodd" d="M3.53298 0H2.14796L0 7.98407H1.43539L2.21809 4.94348L2.82041 2.21312C3.02112 3.12324 3.20283 4.0547 3.42255 4.94348C3.67306 5.95622 3.92452 6.97054 4.21551 7.98407H5.65071L3.53298 0Z" transform="translate(43.2642 14.7217)" fill="white"/>
<path fill-rule="evenodd" clip-rule="evenodd" d="M0 0V7.98407H4.58671V6.71201H1.38502V4.58154H3.99465V3.30949H1.38502V1.27205H4.44625V0H0Z" transform="translate(37.8196 14.7217)" fill="white"/>
<path fill-rule="evenodd" clip-rule="evenodd" d="M5.86967 0H0V1.27205H2.2523V7.98407H3.62744V1.27205H5.86967V0Z" transform="translate(30.7168 14.7217)" fill="white"/>
<path fill-rule="evenodd" clip-rule="evenodd" d="M0 0V7.98407H4.5869V6.71201H1.38521V4.58154H3.99465V3.30949H1.38521V1.27205H4.44625V0H0Z" transform="translate(52.594 2.31152)" fill="white"/>
<path fill-rule="evenodd" clip-rule="evenodd" d="M3.53298 0H2.14776L0 7.98407H1.4352L2.21809 4.94348L2.82041 2.21331C3.02112 3.12343 3.20264 4.05471 3.42254 4.94348C3.67324 5.95642 3.92433 6.97073 4.21551 7.98407H5.65071L3.53298 0Z" transform="translate(46.0242 2.31152)" fill="white"/>
<path fill-rule="evenodd" clip-rule="evenodd" d="M3.50389 0H2.14662L0 7.98407H1.42513L1.76402 6.57766H3.85647L4.19517 7.98407H5.62049L3.50389 0ZM2.0704 5.30561L2.81015 2.23388L3.55008 5.30561H2.0704Z" transform="translate(39.665 2.31152)" fill="white"/>
<path fill-rule="evenodd" clip-rule="evenodd" d="M7.98436 7.98407V0H6.57938V6.71201H4.67965V0C4.21798 0 3.76638 0 3.31478 0V6.71201H1.3951V0H0V7.98407C2.72994 7.98407 5.25442 7.98407 7.98436 7.98407Z" transform="translate(30.7168 2.31152)" fill="white"/>
<path fill-rule="evenodd" clip-rule="evenodd" d="M0 25H24.2617V0H0V25Z" fill="#EE0000"/>
<path fill-rule="evenodd" clip-rule="evenodd" d="M13.1789 5.73726H11.1357V11.4745H7.61126V2.10559H13.1789V0H0V2.10559H5.56784V11.4745H2.04342V5.73726H0V13.5801H13.1789V5.73726Z" transform="translate(5.5415 5.70996)" fill="white"/>
<path fill-rule="evenodd" clip-rule="evenodd" d="M0 0V7.98407H4.58671V6.71201H1.38502V4.58154H3.99446V3.30949H1.38502V1.27205H4.44625V0H0Z" transform="translate(50.05 14.7217)" fill="white"/>
<path fill-rule="evenodd" clip-rule="evenodd" d="M0 0V7.98407H4.58671V6.71201H1.38502V4.58154H3.99465V3.30949H1.38502V1.27205H4.44625V0H0Z" transform="translate(75.4133 14.7217)" fill="white"/>
</svg>
