<svg width="56" height="12" viewBox="0 0 56 12" fill="none" xmlns="http://www.w3.org/2000/svg">
<path d="M9.03418 14H7.78809V11.0029C7.78809 10.4264 7.70573 10.0093 7.54102 9.75146C7.37988 9.49365 7.10596 9.36475 6.71924 9.36475C6.39339 9.36475 6.11589 9.52767 5.88672 9.85352C5.66113 10.1794 5.54834 10.5697 5.54834 11.0244V14H4.29688V10.9009C4.29688 9.87679 3.93522 9.36475 3.21191 9.36475C2.87533 9.36475 2.59782 9.51872 2.37939 9.82666C2.16455 10.1346 2.05713 10.5339 2.05713 11.0244V14H0.811035V8.5H2.05713V9.37012H2.07861C2.47607 8.7041 3.05436 8.37109 3.81348 8.37109C4.19303 8.37109 4.52425 8.47673 4.80713 8.68799C5.09359 8.89567 5.28874 9.1696 5.39258 9.50977C5.80078 8.75065 6.40951 8.37109 7.21875 8.37109C8.42904 8.37109 9.03418 9.11768 9.03418 10.6108V14ZM15.7609 11.5884H12.0119C12.0262 12.0968 12.182 12.4889 12.4792 12.7646C12.78 13.0404 13.1918 13.1782 13.7146 13.1782C14.3018 13.1782 14.8407 13.0028 15.3313 12.6519V13.6562C14.8299 13.9714 14.1675 14.1289 13.3439 14.1289C12.5347 14.1289 11.8991 13.88 11.4372 13.3823C10.9789 12.881 10.7497 12.1774 10.7497 11.2715C10.7497 10.4157 11.0021 9.71924 11.507 9.18213C12.0155 8.64144 12.6457 8.37109 13.3977 8.37109C14.1496 8.37109 14.7315 8.61279 15.1433 9.09619C15.555 9.57959 15.7609 10.251 15.7609 11.1104V11.5884ZM14.5578 10.7075C14.5542 10.2599 14.4486 9.9126 14.2409 9.66553C14.0332 9.41488 13.7468 9.28955 13.3815 9.28955C13.0235 9.28955 12.7191 9.42025 12.4685 9.68164C12.2214 9.94303 12.0692 10.285 12.0119 10.7075H14.5578ZM22.4984 14H21.2523V13.0654H21.2309C20.8298 13.7744 20.2121 14.1289 19.3778 14.1289C18.7011 14.1289 18.1586 13.8836 17.7504 13.3931C17.3458 12.8989 17.1435 12.2275 17.1435 11.3789C17.1435 10.4694 17.3673 9.74072 17.8148 9.19287C18.266 8.64502 18.8658 8.37109 19.6142 8.37109C20.3554 8.37109 20.8943 8.66829 21.2309 9.2627H21.2523V5.85742H22.4984V14ZM21.2685 11.4863V10.7666C21.2685 10.3763 21.1413 10.0451 20.8871 9.77295C20.6329 9.50081 20.3088 9.36475 19.9149 9.36475C19.4494 9.36475 19.0824 9.53841 18.8139 9.88574C18.5489 10.2331 18.4164 10.7147 18.4164 11.3306C18.4164 11.8892 18.5435 12.3314 18.7978 12.6572C19.0556 12.9795 19.4011 13.1406 19.8344 13.1406C20.2605 13.1406 20.606 12.9849 20.871 12.6733C21.136 12.3582 21.2685 11.9626 21.2685 11.4863ZM25.3043 7.34521C25.1002 7.34521 24.9247 7.27897 24.7779 7.14648C24.6347 7.014 24.5631 6.8457 24.5631 6.6416C24.5631 6.4375 24.6347 6.26742 24.7779 6.13135C24.9247 5.99528 25.1002 5.92725 25.3043 5.92725C25.5156 5.92725 25.6946 5.99528 25.8414 6.13135C25.9882 6.26742 26.0616 6.4375 26.0616 6.6416C26.0616 6.83496 25.9882 7.00146 25.8414 7.14111C25.6946 7.27718 25.5156 7.34521 25.3043 7.34521ZM25.922 14H24.6759V8.5H25.922V14ZM32.3265 14H31.118V13.1406H31.0965C30.7169 13.7995 30.1601 14.1289 29.4261 14.1289C28.8854 14.1289 28.4611 13.9821 28.1531 13.6885C27.8488 13.3949 27.6966 13.0063 27.6966 12.5229C27.6966 11.4845 28.2946 10.8794 29.4905 10.7075L31.1233 10.4766C31.1233 9.69238 30.7509 9.30029 30.0062 9.30029C29.3509 9.30029 28.7601 9.52588 28.2337 9.97705V8.88672C28.8138 8.54297 29.4834 8.37109 30.2425 8.37109C31.6318 8.37109 32.3265 9.05501 32.3265 10.4229V14ZM31.1233 11.2983L29.9686 11.4595C29.6105 11.506 29.3401 11.5938 29.1575 11.7227C28.9785 11.848 28.889 12.07 28.889 12.3887C28.889 12.6214 28.9713 12.813 29.136 12.9634C29.3043 13.1102 29.5281 13.1836 29.8074 13.1836C30.187 13.1836 30.5003 13.0511 30.7474 12.7861C30.998 12.5176 31.1233 12.181 31.1233 11.7764V11.2983ZM38.6987 13.2051H38.6772V14H37.4312V5.85742H38.6772V9.4668H38.6987C39.1248 8.73633 39.7479 8.37109 40.5679 8.37109C41.2625 8.37109 41.805 8.61816 42.1953 9.1123C42.5892 9.60286 42.7861 10.2617 42.7861 11.0889C42.7861 12.0091 42.5659 12.7467 42.1255 13.3018C41.6851 13.8532 41.0835 14.1289 40.3208 14.1289C39.6047 14.1289 39.064 13.821 38.6987 13.2051ZM38.6665 11.019V11.7012C38.6665 12.1022 38.7936 12.4424 39.0479 12.7217C39.3057 13.001 39.6315 13.1406 40.0254 13.1406C40.4873 13.1406 40.849 12.9616 41.1104 12.6035C41.3753 12.2419 41.5078 11.7388 41.5078 11.0942C41.5078 10.5535 41.3843 10.131 41.1372 9.82666C40.8937 9.51872 40.5625 9.36475 40.1436 9.36475C39.6995 9.36475 39.3415 9.5223 39.0693 9.8374C38.8008 10.1525 38.6665 10.5464 38.6665 11.019ZM48.7019 14H47.4934V13.1406H47.4719C47.0923 13.7995 46.5355 14.1289 45.8015 14.1289C45.2608 14.1289 44.8365 13.9821 44.5285 13.6885C44.2242 13.3949 44.072 13.0063 44.072 12.5229C44.072 11.4845 44.67 10.8794 45.8659 10.7075L47.4987 10.4766C47.4987 9.69238 47.1263 9.30029 46.3815 9.30029C45.7263 9.30029 45.1354 9.52588 44.6091 9.97705V8.88672C45.1892 8.54297 45.8588 8.37109 46.6179 8.37109C48.0072 8.37109 48.7019 9.05501 48.7019 10.4229V14ZM47.4987 11.2983L46.3439 11.4595C45.9859 11.506 45.7155 11.5938 45.5329 11.7227C45.3539 11.848 45.2644 12.07 45.2644 12.3887C45.2644 12.6214 45.3467 12.813 45.5114 12.9634C45.6797 13.1102 45.9035 13.1836 46.1828 13.1836C46.5624 13.1836 46.8757 13.0511 47.1228 12.7861C47.3734 12.5176 47.4987 12.181 47.4987 11.7764V11.2983ZM55.5414 8.5L53.06 14.8809C52.5443 16.0195 51.821 16.5889 50.89 16.5889C50.6286 16.5889 50.4102 16.5656 50.2348 16.519V15.4824C50.4317 15.5469 50.6107 15.5791 50.7719 15.5791C51.2374 15.5791 51.5847 15.3499 51.8139 14.8916L52.1845 13.9893L49.9984 8.5H51.3788L52.6894 12.4961C52.7037 12.5462 52.7359 12.6787 52.786 12.8936H52.8129C52.8308 12.8112 52.863 12.6823 52.9096 12.5068L54.2846 8.5H55.5414Z" transform="translate(-0.411133 -5)" fill="white"/>
</svg>
