<svg xmlns="http://www.w3.org/2000/svg" style="display:none"><symbol id="logo--footer" viewBox="0 0 80 25"><path fill-rule="evenodd" clip-rule="evenodd" d="M71.591 22.778c1.837 0 2.64-.734 2.64-2.378v-3.372c0-1.686-.773-2.379-2.64-2.379-1.866 0-2.579.696-2.579 2.379V20.4c0 1.641.743 2.378 2.58 2.378zm0-1.261c-1.003 0-1.194-.435-1.194-1.19V17.1c0-.723.19-1.189 1.194-1.189 1.074 0 1.255.469 1.255 1.19v3.226c0 .752-.25 1.19-1.255 1.19zM68.576 22.706l-2.75-3.982 2.533-4.002h-1.615l-2.042 3.371h-.371v-3.371h-1.385v7.984h1.375V19.51h.391l2.178 3.196h1.686zM56.053 22.706h4.396v1.137h1.305v-2.41h-.693v-6.711h-1.385v6.712h-2.248v-6.712h-1.375v7.984zM46.797 14.722h-1.385l-2.148 7.984H44.7l.782-3.04.603-2.731c.2.91.382 1.841.602 2.73.25 1.013.502 2.027.793 3.04h1.435l-2.118-7.983zM37.82 14.722v7.984h4.586v-1.272h-3.201v-2.13h2.61V18.03h-2.61v-2.037h3.06v-1.272H37.82zM36.586 14.722h-5.87v1.272h2.253v6.712h1.375v-6.712h2.242v-1.272zM52.594 2.312v7.984h4.587V9.024h-3.202v-2.13h2.61V5.62h-2.61V3.584h3.061V2.312h-4.446zM49.557 2.312h-1.385l-2.148 7.984h1.435l.783-3.041.603-2.73c.2.91.382 1.841.602 2.73.25 1.013.502 2.027.793 3.04h1.435l-2.118-7.983zM43.169 2.312h-1.357l-2.147 7.984h1.425l.339-1.407h2.092l.34 1.407h1.424L43.17 2.312zm-1.434 5.305l.74-3.072.74 3.072h-1.48zM38.701 10.296V2.312h-1.405v6.712h-1.9V2.312h-1.364v6.712h-1.92V2.312h-1.395v7.984H38.7z" fill="#fff"/><path fill-rule="evenodd" clip-rule="evenodd" d="M0 25h24.262V0H0v25z" fill="#E00"/><path fill-rule="evenodd" clip-rule="evenodd" d="M18.72 11.447h-2.043v5.737h-3.524V7.816h5.567V5.71H5.541v2.106h5.568v9.368H7.585v-5.737H5.54v7.843h13.18v-7.843zM50.05 14.722v7.984h4.587v-1.272h-3.202v-2.13h2.61V18.03h-2.61v-2.037h3.061v-1.272H50.05zM75.413 14.722v7.984H80v-1.272h-3.202v-2.13h2.61V18.03h-2.61v-2.037h3.062v-1.272h-4.447z" fill="#fff"/></symbol><symbol id="logo--header" viewBox="0 0 421 128"><path fill-rule="evenodd" clip-rule="evenodd" d="M376.663 116.305c9.664 0 13.888-3.749 13.888-12.145V86.944c0-8.607-4.066-12.145-13.888-12.145s-13.571 3.554-13.571 12.145v17.216c0 8.38 3.907 12.145 13.571 12.145zm0-6.442c-5.281 0-6.284-2.218-6.284-6.073V87.314c0-3.696 1.003-6.073 6.284-6.073 5.65 0 6.601 2.392 6.601 6.073v16.476c0 3.839-1.32 6.073-6.601 6.073zM360.799 115.935l-14.469-20.33 13.329-20.436h-8.501l-10.742 17.215h-1.954V75.169h-7.287v40.766h7.234V99.618h2.06l11.459 16.317h8.871zM294.911 115.935h23.129v5.809h6.865V109.44h-3.644V75.169h-7.287v34.271h-11.829V75.169h-7.234v40.766zM246.213 75.169h-7.287l-11.301 40.766h7.552l4.118-15.525 3.169-13.941c1.056 4.647 2.012 9.403 3.168 13.941 1.318 5.171 2.641 10.35 4.172 15.525h7.551l-11.142-40.766zM198.98 75.169v40.766h24.132v-6.495h-16.845V98.562h13.73v-6.495h-13.73V81.664h16.106v-6.495H198.98zM192.493 75.169h-30.882v6.495h11.85v34.271h7.235V81.664h11.797v-6.495zM276.713 11.801v40.766h24.133v-6.495h-16.845V35.194h13.729v-6.495h-13.729V18.296h16.105v-6.495h-23.393zM260.733 11.801h-7.288l-11.3 40.766h7.551l4.119-15.525 3.169-13.94c1.056 4.647 2.011 9.402 3.168 13.94 1.319 5.172 2.64 10.351 4.172 15.525h7.551l-11.142-40.766zM227.124 11.801h-7.141l-11.294 40.766h7.498l1.783-7.181h11.009l1.782 7.181h7.499l-11.136-40.766zm-7.542 27.09l3.892-15.684 3.893 15.684h-7.785zM203.619 52.567V11.801h-7.392v34.271h-9.995V11.801h-7.181v34.271h-10.1V11.801h-7.34v40.766h42.008z" fill="#fff"/><path fill-rule="evenodd" clip-rule="evenodd" d="M0 127.648h127.648V0H0v127.648z" fill="#E00"/><path fill-rule="evenodd" clip-rule="evenodd" d="M98.493 58.449h-10.75v29.294H69.2V39.906h29.293V29.155H29.155v10.751h29.294v47.837H39.906V58.449H29.155v40.045h69.338V58.449zM263.328 75.169v40.766h24.132v-6.495h-16.845V98.562h13.729v-6.495h-13.729V81.664h16.106v-6.495h-23.393zM396.771 75.169v40.766h24.132v-6.495h-16.845V98.562h13.73v-6.495h-13.73V81.664h16.106v-6.495h-23.393z" fill="#fff"/></symbol><symbol id="media-bay" viewBox="0 0 56 12"><path d="M8.623 9H7.377V6.003c0-.577-.082-.994-.247-1.252-.161-.257-.435-.386-.822-.386-.326 0-.603.163-.832.489-.226.325-.339.716-.339 1.17V9H3.886V5.9c0-1.023-.362-1.535-1.085-1.535-.337 0-.614.154-.833.462-.215.308-.322.707-.322 1.197V9H.4V3.5h1.246v.87h.021c.398-.666.976-.999 1.735-.999.38 0 .711.106.994.317.286.208.482.482.585.822.409-.76 1.017-1.139 1.827-1.139 1.21 0 1.815.747 1.815 2.24V9zm6.727-2.412H11.6c.015.509.17.9.468 1.177.3.275.713.413 1.235.413.588 0 1.127-.175 1.617-.526v1.004c-.501.315-1.164.473-1.987.473-.81 0-1.445-.249-1.907-.747-.458-.501-.687-1.205-.687-2.11 0-.856.252-1.553.757-2.09a2.49 2.49 0 0 1 1.89-.81c.752 0 1.334.24 1.746.724.412.484.618 1.155.618 2.014v.478zm-1.203-.88c-.004-.448-.11-.795-.317-1.042-.208-.251-.494-.376-.86-.376-.358 0-.662.13-.913.392-.247.261-.399.603-.456 1.025h2.546zM22.087 9h-1.246v-.935h-.021c-.401.71-1.019 1.064-1.853 1.064-.677 0-1.22-.245-1.628-.736-.404-.494-.607-1.166-.607-2.014 0-.91.224-1.638.672-2.186.45-.548 1.05-.822 1.8-.822.74 0 1.28.297 1.616.892h.021V.857h1.246V9zm-1.23-2.514v-.72c0-.39-.127-.72-.381-.993a1.272 1.272 0 0 0-.972-.408c-.466 0-.833.173-1.101.52-.265.348-.398.83-.398 1.446 0 .558.127 1 .382 1.326.257.322.603.484 1.036.484.426 0 .772-.156 1.037-.468.265-.315.397-.71.397-1.187zm4.036-4.14a.759.759 0 0 1-.526-.2.658.658 0 0 1-.215-.504c0-.204.072-.375.215-.51a.748.748 0 0 1 .526-.205c.211 0 .39.068.537.204.147.136.22.306.22.51 0 .194-.073.36-.22.5a.761.761 0 0 1-.537.204zM25.511 9h-1.246V3.5h1.246V9zm6.404 0h-1.208v-.86h-.022c-.38.66-.936.989-1.67.989-.54 0-.965-.147-1.273-.44-.304-.294-.457-.683-.457-1.166 0-1.038.598-1.644 1.794-1.816l1.633-.23c0-.785-.372-1.177-1.117-1.177-.655 0-1.246.226-1.772.677v-1.09c.58-.344 1.25-.516 2.008-.516 1.39 0 2.084.684 2.084 2.052V9zm-1.203-2.702l-1.155.162c-.358.046-.628.134-.81.263-.18.125-.27.347-.27.666 0 .232.083.424.248.574.168.147.392.22.671.22.38 0 .693-.132.94-.397.25-.268.376-.605.376-1.01v-.478zm7.576 1.907h-.022V9H37.02V.857h1.246v3.61h.022c.426-.73 1.049-1.096 1.869-1.096.694 0 1.237.247 1.627.741.394.49.591 1.15.591 1.977 0 .92-.22 1.658-.66 2.213-.441.551-1.043.827-1.805.827-.716 0-1.257-.308-1.622-.924zm-.033-2.186v.682c0 .401.127.741.382 1.02.258.28.583.42.977.42.462 0 .824-.18 1.085-.537.265-.362.398-.865.398-1.51 0-.54-.124-.963-.37-1.267-.244-.308-.576-.462-.995-.462-.444 0-.802.157-1.074.472-.268.316-.403.71-.403 1.182zM48.291 9h-1.209v-.86h-.021c-.38.66-.937.989-1.67.989-.541 0-.966-.147-1.274-.44-.304-.294-.456-.683-.456-1.166 0-1.038.598-1.644 1.794-1.816l1.633-.23c0-.785-.373-1.177-1.118-1.177-.655 0-1.246.226-1.772.677v-1.09c.58-.344 1.25-.516 2.009-.516 1.39 0 2.084.684 2.084 2.052V9zm-1.203-2.702l-1.155.162c-.358.046-.629.134-.811.263-.18.125-.269.347-.269.666 0 .232.083.424.247.574.169.147.392.22.672.22.38 0 .693-.132.94-.397.25-.268.376-.605.376-1.01v-.478zM55.13 3.5L52.65 9.88c-.516 1.14-1.24 1.709-2.17 1.709-.262 0-.48-.023-.655-.07v-1.037c.197.065.376.097.537.097.465 0 .813-.23 1.042-.687l.37-.903L49.587 3.5h1.38l1.311 3.996c.015.05.047.183.097.398h.027c.018-.083.05-.212.096-.387L53.873 3.5h1.257z" fill="#fff"/></symbol></svg>